<svg id="Layer_1" data-name="Layer 1" xmlns="http://www.w3.org/2000/svg" viewBox="0 0 499.51 328.05"><defs><style>.cls-1{fill:#d7a429;}.cls-2{fill:#cd5a28;}.cls-3{fill:#c96528;}.cls-4{fill:#ec6425;}.cls-5{font-size:38.08px;fill:#231f20;font-family:Orkney-Medium, Orkney;}</style></defs><title>snapperlogo</title><polygon class="cls-1" points="252.38 0 356.72 57.14 317.2 77.62 212.85 20.69 252.38 0"/><polygon class="cls-2" points="356.8 56.99 357.48 99.13 317.71 121.06 317.01 77.88 356.8 56.99"/><polygon class="cls-2" points="224 53.71 184.33 75.3 145.34 54.95 186.37 33.36 224 53.71"/><polygon class="cls-1" points="145.79 55.22 184.78 75.24 184.78 187.56 145.34 166.18 145.79 55.22"/><polygon class="cls-2" points="209.72 159.22 249.68 181.23 249.68 222.13 209.72 200.12 209.72 159.22"/><polygon class="cls-1" points="249.68 181.49 358.23 123.91 359.41 167.2 249.68 222.89 249.68 181.49"/><polygon class="cls-3" points="208.36 88.47 250.63 110.89 250.63 154.07 208.36 132.48 208.36 88.47"/><polygon class="cls-4" points="250.86 67 292.68 90.58 250.86 111.42 208.58 88.68 250.86 67"/><polygon class="cls-1" points="292.39 90.58 292.39 132.39 250.34 154.61 250.57 111.42 292.39 90.58"/><text class="cls-5" transform="translate(33.92 270.63)">SNAPPER FUTURE TECH</text></svg>