<?xml version="1.0"?>
<svg xmlns="http://www.w3.org/2000/svg" xmlns:xlink="http://www.w3.org/1999/xlink" xmlns:svgjs="http://svgjs.com/svgjs" version="1.1" width="512" height="512" x="0" y="0" viewBox="0 0 432.588 432.588" style="enable-background:new 0 0 512 512" xml:space="preserve" class=""><g>
<path xmlns="http://www.w3.org/2000/svg" style="" d="M310.335,0h-153.6c-4.18,0-8.359,1.567-10.971,4.702L40.229,110.759  c-3.135,3.135-4.702,6.792-4.702,10.971v235.102c0,23.51,18.286,41.796,41.796,41.796H256v-31.347H77.322  c-5.747,0-10.449-4.702-10.449-10.449V137.404h74.188c17.763,0,31.347-13.584,31.347-31.347v-74.71h137.927  c5.747,0,10.449,4.702,10.449,10.449v227.788h31.347V41.796C352.131,18.286,333.845,0,310.335,0z M88.816,106.057l52.245-52.245  v52.245H88.816z" fill="#a5a4bf" data-original="#1185e0" class=""/>
<path xmlns="http://www.w3.org/2000/svg" style="" d="M392.359,405.943l-42.318-42.318c9.927-14.629,16.196-31.869,16.196-50.678  c0-49.11-39.706-88.816-88.816-88.816s-88.816,39.706-88.816,88.816s39.706,88.816,88.816,88.816  c18.808,0,36.049-5.747,50.678-16.196l42.318,42.318c3.135,3.135,7.314,4.702,10.971,4.702s7.837-1.567,10.971-4.702  C398.629,422.139,398.629,412.212,392.359,405.943z M219.951,312.947c0-31.869,25.6-57.469,57.469-57.469s57.469,25.6,57.469,57.469  s-25.6,57.469-57.469,57.469S219.951,344.816,219.951,312.947z" fill="#a5a4bf" data-original="#4dcfe0" class=""/>
<g xmlns="http://www.w3.org/2000/svg">
</g>
<g xmlns="http://www.w3.org/2000/svg">
</g>
<g xmlns="http://www.w3.org/2000/svg">
</g>
<g xmlns="http://www.w3.org/2000/svg">
</g>
<g xmlns="http://www.w3.org/2000/svg">
</g>
<g xmlns="http://www.w3.org/2000/svg">
</g>
<g xmlns="http://www.w3.org/2000/svg">
</g>
<g xmlns="http://www.w3.org/2000/svg">
</g>
<g xmlns="http://www.w3.org/2000/svg">
</g>
<g xmlns="http://www.w3.org/2000/svg">
</g>
<g xmlns="http://www.w3.org/2000/svg">
</g>
<g xmlns="http://www.w3.org/2000/svg">
</g>
<g xmlns="http://www.w3.org/2000/svg">
</g>
<g xmlns="http://www.w3.org/2000/svg">
</g>
<g xmlns="http://www.w3.org/2000/svg">
</g>
</g></svg>
