<svg width="512" height="512" viewBox="0 0 512 512" fill="none" xmlns="http://www.w3.org/2000/svg">
<path d="M256 512C397.385 512 512 397.385 512 256C512 114.615 397.385 0 256 0C114.615 0 0 114.615 0 256C0 397.385 114.615 512 256 512Z" fill="#787B80"/>
<path d="M267.365 428.882H161.294C136.308 428.882 116 408.574 116 383.588V128.294C116 103.308 136.308 83 161.294 83H350.706C375.692 83 396 103.308 396 128.294V228.6C396 235.419 390.466 240.953 383.647 240.953C376.828 240.953 371.294 235.419 371.294 228.6V128.294C371.294 116.946 362.054 107.706 350.706 107.706H161.294C149.946 107.706 140.706 116.946 140.706 128.294V383.588C140.706 394.936 149.946 404.176 161.294 404.176H267.365C274.184 404.176 279.718 409.711 279.718 416.529C279.718 423.348 274.184 428.882 267.365 428.882Z" fill="white"/>
<path d="M334.236 239.471H177.765C170.946 239.471 165.412 233.936 165.412 227.118C165.412 220.299 170.946 214.765 177.765 214.765H334.236C341.054 214.765 346.589 220.299 346.589 227.118C346.589 233.936 341.054 239.471 334.236 239.471Z" fill="white"/>
<path d="M268.353 305.353H177.765C170.946 305.353 165.412 299.819 165.412 293C165.412 286.181 170.946 280.647 177.765 280.647H268.353C275.172 280.647 280.706 286.181 280.706 293C280.706 299.819 275.172 305.353 268.353 305.353Z" fill="white"/>
<path d="M251.883 173.588H177.765C170.946 173.588 165.412 168.054 165.412 161.235C165.412 154.416 170.946 148.882 177.765 148.882H251.883C258.702 148.882 264.236 154.416 264.236 161.235C264.236 168.054 258.702 173.588 251.883 173.588Z" fill="white"/>
<path d="M244.635 83L350.706 83C375.692 83 396 103.308 396 128.294L396 383.588C396 408.574 375.692 428.882 350.706 428.882L161.294 428.882C136.308 428.882 116 408.574 116 383.588L116 283.282C116 276.463 121.534 270.929 128.353 270.929C135.172 270.929 140.706 276.463 140.706 283.282L140.706 383.588C140.706 394.936 149.946 404.176 161.294 404.176L350.706 404.176C362.054 404.176 371.294 394.936 371.294 383.588L371.294 128.294C371.294 116.946 362.054 107.706 350.706 107.706L244.635 107.706C237.817 107.706 232.282 102.172 232.282 95.3529C232.282 88.5341 237.817 83 244.635 83Z" fill="white"/>
</svg>
