<?xml version="1.0"?>
<svg xmlns="http://www.w3.org/2000/svg" xmlns:xlink="http://www.w3.org/1999/xlink" xmlns:svgjs="http://svgjs.com/svgjs" version="1.1" width="512" height="512" x="0" y="0" viewBox="0 0 512 512" style="enable-background:new 0 0 512 512" xml:space="preserve" class=""><g><g xmlns="http://www.w3.org/2000/svg"><path d="m234.144 121.643v-11.256c0-4.142-3.357-7.5-7.5-7.5s-7.5 3.358-7.5 7.5v11.256c0 4.142 3.357 7.5 7.5 7.5s7.5-3.358 7.5-7.5z" fill="#a5a4bf" data-original="#000000" style="" class=""/><path d="m286.314 129.143c4.143 0 7.5-3.358 7.5-7.5v-11.256c0-4.142-3.357-7.5-7.5-7.5s-7.5 3.358-7.5 7.5v11.256c0 4.142 3.358 7.5 7.5 7.5z" fill="#a5a4bf" data-original="#000000" style="" class=""/><path d="m256.479 161.231c11.294 0 20.481-9.188 20.481-20.481 0-4.142-3.357-7.5-7.5-7.5s-7.5 3.358-7.5 7.5c0 3.022-2.459 5.481-5.481 5.481-3.021 0-5.48-2.459-5.48-5.481 0-4.142-3.357-7.5-7.5-7.5s-7.5 3.358-7.5 7.5c-.001 11.293 9.187 20.481 20.48 20.481z" fill="#a5a4bf" data-original="#000000" style="" class=""/><path d="m470.001 451.876c11.98-10.051 19.615-25.12 19.615-41.945 0-27.616-20.558-50.508-47.171-54.21v-66.975c0-11.299-9.192-20.491-20.491-20.491h-75.597v-6.623c0-4.142-3.357-7.5-7.5-7.5s-7.5 3.358-7.5 7.5v6.623h-10.812v-41.912c0-4.14-3.355-7.497-7.495-7.5v-9.997c9.648.796 17.522 8.561 18.251 18.347.308 4.13 3.904 7.219 8.036 6.922 4.131-.308 7.23-3.906 6.923-8.037-1.35-18.119-16.653-32.312-34.84-32.312h-22.115v-11.27c16.387-8.885 28.805-24.294 33.632-43.168 13.039-2.501 22.922-13.993 22.922-27.75 0-6.917-2.499-13.259-6.641-18.176.291-.799.457-1.658.457-2.558v-36.823c0-22.207-17.659-41.827-42.458-41.827-7.618-7.533-18.081-12.194-29.615-12.194h-86.818c-4.143 0-7.5 3.358-7.5 7.5v55.83c0 8.927 3.363 17.08 8.882 23.271-8.951 4.746-15.065 14.159-15.065 24.977 0 13.757 9.883 25.25 22.922 27.75 4.827 18.873 17.245 34.282 33.632 43.167v11.271h-21.928c-19.264 0-34.937 15.672-34.937 34.936v39.552h-75.598c-11.299 0-20.491 9.192-20.491 20.491v11.825c0 4.142 3.357 7.5 7.5 7.5s7.5-3.358 7.5-7.5v-11.825c0-3.028 2.463-5.491 5.491-5.491h330.761c3.028 0 5.491 2.463 5.491 5.491v66.94c-28.47 3.872-49.692 29.646-47.114 59.003h-67.522c.123-1.404.208-3.255.208-4.758 0-30.188-24.559-54.747-54.746-54.747s-54.747 24.559-54.747 54.747c0 1.577.097 3.496.208 4.758h-72.212c.256-2.918.257-5.491.089-8.191-1.578-25.592-20.754-46.566-45.907-50.611v-20.316c0-4.142-3.357-7.5-7.5-7.5s-7.5 3.358-7.5 7.5v19.985c-27.24 3.126-48.468 26.312-48.468 54.376 0 16.842 7.65 31.927 19.652 41.978-22.63 6.779-39.173 27.785-39.173 52.592 0 4.142 3.357 7.5 7.5 7.5h133.688c4.143 0 7.5-3.358 7.5-7.5 0-24.848-16.599-45.882-39.287-52.624 7.02-5.89 12.538-13.505 15.91-22.187h79.205c3.378 8.697 8.909 16.325 15.948 22.219-22.63 6.779-39.174 27.785-39.174 52.592 0 4.142 3.357 7.5 7.5 7.5h133.688c4.143 0 7.5-3.358 7.5-7.5 0-24.848-16.599-45.882-39.288-52.624 7.02-5.89 12.537-13.505 15.91-22.187h74.515c3.378 8.697 8.909 16.325 15.948 22.219-22.63 6.779-39.173 27.785-39.173 52.592 0 4.142 3.357 7.5 7.5 7.5h133.688c4.143 0 7.5-3.358 7.5-7.5-.002-24.849-16.601-45.883-39.289-52.625zm-181.629-243.11h9.677v10.076h-14.029c1.982-3.049 3.47-6.444 4.352-10.076zm36.303-154.745v29.323h-1.872c-2.449-9.241-6.907-18.027-13.055-25.59 0-16.113.508-20.71-2.065-28.618-.009-.028-.017-.057-.026-.085 9.955 3.923 17.018 13.637 17.018 24.97zm-136.392-39.021h79.318c12.389 0 23.025 8.387 26.195 20.035.001.005.003.01.004.015 1.249 4.601.947 5.675.947 29.915 0 10.134-8.244 18.378-18.378 18.378h-68.073c-10.971 0-20.014-8.935-20.014-20.014v-48.329zm15.314 116.075c-.618-3.696-3.884-6.404-7.697-6.257-7.62.309-13.8-5.81-13.8-13.24 0-7.309 5.946-13.255 13.255-13.255 1 0 2.568.188 4.593-.981 2.366.582 5.439 1.003 8.35 1.003h68.073c12.431 0 23.904-7.017 29.605-17.974 1.629 3.896 2.746 7.886 3.386 11.712.73 4.354 4.249 6.262 8.665 6.262 7.113.227 12.832 6.068 12.832 13.234 0 7.45-6.2 13.548-13.8 13.24-3.738-.141-7.074 2.529-7.697 6.257-4.372 26.135-26.834 44.704-52.876 44.706-.002 0-.004 0-.006 0-25.706-.001-48.46-18.264-52.883-44.707zm52.882 59.706c5.718 0 11.861-.742 17.825-2.33v12.565c0 10.394-9.051 18.802-19.629 17.734-9.04-.92-16.022-8.646-16.022-17.734v-12.566c5.952 1.585 12.074 2.331 17.826 2.331zm-41.572 17.985h9.678c.883 3.632 2.371 7.027 4.351 10.076h-14.03v-10.076zm-33.118 19.936c0-10.379 7.975-18.921 18.118-19.844v9.984c-4.14.003-7.494 3.36-7.494 7.5v41.912h-10.624zm25.624 39.552v-34.412h98.132v34.412zm-170.18 141.677c0-22.165 18.269-40.268 40.724-39.722.018.001.035.004.053.004 21.507.547 38.716 18.202 38.716 39.718 0 20.939-16.4 38.438-37.392 39.671h-4.71c-20.823-1.224-37.391-18.546-37.391-39.671zm59.268 54.671c19.437 0 35.672 13.972 39.191 32.398h-117.273c3.52-18.427 19.755-32.398 39.191-32.398zm161.769-94.418c21.916 0 39.746 17.83 39.746 39.747 0 21.004-16.464 38.441-37.391 39.671h-4.71c-20.938-1.23-37.392-18.676-37.392-39.671-.001-21.917 17.83-39.747 39.747-39.747zm19.521 94.418c19.437 0 35.672 13.972 39.191 32.398h-117.274c3.52-18.427 19.755-32.398 39.191-32.398zm196.824-54.671c0 21.125-16.568 38.447-37.392 39.671h-4.71c-18.865-1.108-34.434-15.483-37.015-34.275-.022-.158-.041-.316-.06-.474-2.934-23.422 15.235-44.666 39.507-44.666 21.881.041 39.67 17.853 39.67 39.744zm-98.307 87.069c3.52-18.427 19.755-32.398 39.191-32.398h38.891c19.437 0 35.672 13.972 39.191 32.398z" fill="#a5a4bf" data-original="#000000" style="" class=""/><path d="m265.566 339.244c11.574 0 20.991-9.417 20.991-20.991 0-11.575-9.417-20.991-20.991-20.991h-17.987c-11.574 0-20.991 9.417-20.991 20.991s9.417 20.991 20.991 20.991zm-23.978-20.991c0-3.304 2.688-5.991 5.991-5.991h17.987c3.304 0 5.991 2.688 5.991 5.991s-2.688 5.991-5.991 5.991h-17.987c-3.304 0-5.991-2.688-5.991-5.991z" fill="#a5a4bf" data-original="#000000" style="" class=""/><path d="m134.269 339.244h17.988c11.574 0 20.991-9.417 20.991-20.991 0-11.575-9.417-20.991-20.991-20.991h-17.988c-11.574 0-20.991 9.417-20.991 20.991-.001 11.574 9.416 20.991 20.991 20.991zm0-26.982h17.988c3.304 0 5.991 2.688 5.991 5.991s-2.688 5.991-5.991 5.991h-17.988c-3.304 0-5.991-2.688-5.991-5.991-.001-3.304 2.687-5.991 5.991-5.991z" fill="#a5a4bf" data-original="#000000" style="" class=""/><path d="m378.877 339.244c11.574 0 20.991-9.417 20.991-20.991 0-11.575-9.417-20.991-20.991-20.991h-17.988c-11.574 0-20.991 9.417-20.991 20.991s9.417 20.991 20.991 20.991zm-23.98-20.991c0-3.304 2.688-5.991 5.991-5.991h17.988c3.304 0 5.991 2.688 5.991 5.991s-2.688 5.991-5.991 5.991h-17.988c-3.303 0-5.991-2.688-5.991-5.991z" fill="#a5a4bf" data-original="#000000" style="" class=""/></g></g></svg>
