<svg id="Layer_1" data-name="Layer 1" xmlns="http://www.w3.org/2000/svg" viewBox="0 0 552.98 394.23">
<defs>
<style>.cls-1{fill:#d8a429;}.cls-2{fill:#cd5928;}.cls-3{fill:#c96428;}.cls-4{fill:#ed6423;}.cls-5{font-size:46.78px;fill:#231f20;font-family:Orkney-Regular, Orkney;}.cls-6{letter-spacing:-0.01em;}.cls-7{letter-spacing:-0.12em;}</style></defs><title>snapperlogo</title><polygon class="cls-1" points="275.02 0 393.49 70.83 348.62 96.22 230.15 25.65 275.02 0"/><polygon class="cls-2" points="393.57 70.64 394.35 122.88 349.2 150.06 348.4 96.54 393.57 70.64"/><polygon class="cls-2" points="242.8 66.57 197.76 93.34 153.5 68.12 200.08 41.35 242.8 66.57"/><polygon class="cls-1" points="154.01 68.45 198.28 93.27 198.28 232.49 153.5 205.98 154.01 68.45"/><polygon class="cls-2" points="226.59 197.36 271.95 224.64 271.95 275.34 226.59 248.06 226.59 197.36"/><polygon class="cls-1" points="271.95 224.96 395.2 153.59 396.53 207.25 271.95 276.28 271.95 224.96"/><polygon class="cls-3" points="225.04 109.66 273.04 137.46 273.04 190.98 225.04 164.22 225.04 109.66"/><polygon class="cls-4" points="273.3 83.04 320.77 112.28 273.3 138.12 225.3 109.93 273.3 83.04"/><polygon class="cls-1" points="320.44 112.28 320.44 164.11 272.71 191.64 272.97 138.12 320.44 112.28"/><text class="cls-5" transform="translate(58.43 340.47)"> Snapper Future Tech<tspan class="cls-6" x="246.51" y="0"></tspan><tspan x="262.46" y="0"></tspan><tspan class="cls-6" x="290.24" y="0"></tspan><tspan x="308.53" y="0"></tspan><tspan class="cls-7" x="346.19" y="0"></tspan><tspan x="366.3" y="0"></tspan></text></svg>