<svg width="512" height="512" viewBox="0 0 512 512" fill="none" xmlns="http://www.w3.org/2000/svg">
<path d="M256 512C397.385 512 512 397.385 512 256C512 114.615 397.385 0 256 0C114.615 0 0 114.615 0 256C0 397.385 114.615 512 256 512Z" fill="#787B80"/>
<circle cx="256" cy="256" r="200" stroke="white" stroke-width="20"/>
<path d="M255.999 363.692C243.26 363.692 232.922 353.353 232.922 340.615V171.384C232.922 158.646 243.26 148.307 255.999 148.307C268.737 148.307 279.076 158.646 279.076 171.384V340.615C279.076 353.353 268.737 363.692 255.999 363.692Z" fill="white"/>
<path d="M340.614 279.079H171.384C158.645 279.079 148.307 268.74 148.307 256.002C148.307 243.263 158.645 232.925 171.384 232.925H340.614C353.353 232.925 363.691 243.263 363.691 256.002C363.691 268.74 353.353 279.079 340.614 279.079Z" fill="white"/>
</svg>
